<svg
    xmlns="http://www.w3.org/2000/svg">
    <symbol id="ios-compose" viewBox="0 0 512 512">
        <path d="M256 320h-64v-64l128-128H64v304h320V192z"/>
        <path d="M387.93 91.74L208 271.65V304h32.22l180.04-179.98zm56.283-11.428l-12.465-12.466C429.084 65.467 425.556 64 421.746 64a14.758 14.758 0 0 0-9.929 3.85L399.666 80l.08.08 11.293 11.293 21.02 21.02 12.15-12.15c2.383-2.625 3.791-6.117 3.791-9.929 0-3.81-1.408-7.339-3.787-10.002z"/>
    </symbol>
    <symbol id="ios-contact" viewBox="0 0 512 512">
        <path d="M256 48C141.1 48 48 141.1 48 256s93.1 208 208 208 208-93.1 208-208S370.9 48 256 48zm0 398.7c-58.6 0-111.1-26.6-146.1-68.3 17.8-7.7 62.2-23.7 90.3-31.9 2.2-.7 2.6-.8 2.6-10.7 0-10.6-1.2-18.1-3.8-23.6-3.5-7.5-7.7-20.2-9.2-31.6-4.2-4.9-9.9-14.5-13.6-32.9-3.2-16.2-1.7-22.1.4-27.6.2-.6.5-1.2.6-1.8.8-3.7-.3-23.5-3.1-38.8-1.9-10.5.5-32.8 15-51.3 9.1-11.7 26.6-26 58-28h17.5c31.9 2 49.4 16.3 58.5 28 14.5 18.5 16.9 40.8 14.9 51.3-2.8 15.3-3.9 35-3.1 38.8.1.6.4 1.2.6 1.7 2.1 5.5 3.7 11.4.4 27.6-3.7 18.4-9.4 28-13.6 32.9-1.5 11.4-5.7 24-9.2 31.6-3.3 6.9-6.6 15.1-6.6 23.3 0 9.9.4 10 2.7 10.7 26.7 7.9 72.7 23.8 93 32.1-35 41.8-87.5 68.5-146.2 68.5z"/>
    </symbol>
    <symbol id="ios-compose-outline" viewBox="0 0 512 512">
        <path d="M368 416H80V144h224.12l16-16H64v304h320V191.88l-16 16z"/>
        <path d="M237.62 284.08l-9.7-9.7 171.32-171.33-11.31-11.31L208 271.65V304h32.22l180.04-179.98-11.31-11.29zM444.213 80.312l-12.465-12.466C429.084 65.467 425.556 64 421.746 64a14.758 14.758 0 0 0-9.929 3.85L399.666 80l.08.08 11.293 11.293 21.02 21.02 12.15-12.15c2.383-2.625 3.791-6.117 3.791-9.929 0-3.81-1.408-7.339-3.787-10.002z"/>
    </symbol>
    <symbol id="ios-flag" viewBox="0 0 512 512">
        <path d="M368 112c-11 1.4-24.9 3.5-39.7 3.5-23.1 0-44-5.7-65.2-10.2-21.5-4.6-43.7-9.3-67.2-9.3-46.9 0-62.8 10.1-64.4 11.2l-3.4 2.4V416h16V272.7c6-2.5 21.8-6.9 51.9-6.9 21.8 0 42.2 8.3 63.9 13 22 4.7 44.8 9.6 69.5 9.6 14.7 0 27.7-2 38.7-3.3 6-.7 11.3-1.4 16-2.2V109.5c-4.7.9-10.1 1.7-16.1 2.5z"/>
    </symbol>
    <symbol id="ios-flag-outline" viewBox="0 0 512 512">
        <path d="M368 112c-11 1.4-24.9 3.5-39.7 3.5-23.1 0-44-5.7-65.2-10.2-21.5-4.6-43.7-9.3-67.2-9.3-46.9 0-62.8 10.1-64.4 11.2l-3.4 2.4V416h16V272.7c6-2.5 21.8-6.9 51.9-6.9 21.8 0 42.2 8.3 63.9 13 22 4.7 44.8 9.6 69.5 9.6 14.7 0 27.7-2 38.7-3.3 6-.7 11.3-1.4 16-2.2V109.5c-4.7.9-10.1 1.7-16.1 2.5zm0 157c-11 1.4-23.9 3.5-38.7 3.5-23.1 0-45-4.7-66.2-9.2-21.5-4.6-43.6-13.3-67.1-13.3-25.7 0-41.9 3-51.9 6V118.7c6-2.5 21.9-6.8 51.9-6.8 21.8 0 42.2 4.3 63.9 9 22 4.7 43.8 10.6 68.5 10.6 14.7 0 28.7-2 39.7-3.3L368 269z"/>
    </symbol>
    <symbol id="ios-clock-outline" viewBox="0 0 512 512">
        <path d="M256 48C141.1 48 48 141.1 48 256s93.1 208 208 208 208-93.1 208-208S370.9 48 256 48zm0 398.7c-105.1 0-190.7-85.5-190.7-190.7 0-105.1 85.5-190.7 190.7-190.7 105.1 0 190.7 85.5 190.7 190.7 0 105.1-85.6 190.7-190.7 190.7z"/>
        <path d="M256 256h-96v17.3h113.3V128H256z"/>
    </symbol>
    <symbol id="ios-plus-empty" viewBox="0 0 512 512">
        <path d="M384 265H264v119h-17V265H128v-17h119V128h17v120h120v17z"/>
    </symbol>
    <symbol id="ios-contact-outline" viewBox="0 0 512 512">
        <path d="M256 48C141.1 48 48 141.1 48 256s93.1 208 208 208 208-93.1 208-208S370.9 48 256 48zm0 17.3c105.1 0 190.7 85.5 190.7 190.7 0 46.5-16.7 89.1-44.4 122.2-20-8.2-65.9-24.1-92.9-32.1-2.4-.7-2.7-.9-2.7-10.7 0-8.1 3.3-16.3 6.6-23.3 3.6-7.5 7.7-20.2 9.2-31.6 4.2-4.9 10-14.5 13.6-32.9 3.2-16.2 1.7-22.1-.4-27.6-.2-.6-.5-1.2-.6-1.7-.8-3.8.3-23.5 3.1-38.8 1.9-10.5-.5-32.8-14.9-51.3-9.1-11.7-26.6-26-58.5-28h-17.5c-31.4 2-48.8 16.3-58 28-14.5 18.5-16.9 40.8-15 51.3 2.8 15.3 3.9 35 3.1 38.8-.2.7-.4 1.2-.6 1.8-2.1 5.5-3.7 11.4-.4 27.6 3.7 18.4 9.4 28 13.6 32.9 1.5 11.4 5.7 24 9.2 31.6 2.6 5.5 3.8 13 3.8 23.6 0 9.9-.4 10-2.6 10.7-28.1 8.3-72.6 24.3-90.4 32-27.9-33.2-44.7-75.9-44.7-122.5 0-105.1 85.6-190.7 190.7-190.7z"/>
    </symbol>
    <symbol id="ios-plus" viewBox="0 0 512 512">
        <path d="M256 48C141.1 48 48 141.1 48 256s93.1 208 208 208 208-93.1 208-208S370.9 48 256 48zm128 217H264v119h-17V265H128v-17h119V128h17v120h120v17z"/>
    </symbol>
    <symbol id="ios-plus-outline" viewBox="0 0 512 512">
        <path d="M256 48C141.1 48 48 141.1 48 256s93.1 208 208 208 208-93.1 208-208S370.9 48 256 48zm0 398.7c-105.1 0-190.7-85.5-190.7-190.7S150.9 65.3 256 65.3 446.7 150.9 446.7 256 361.1 446.7 256 446.7z"/>
        <path d="M264.1 128h-16.8v119.9H128v16.8h119.3V384h16.8V264.7H384v-16.8H264.1z"/>
    </symbol>
    <symbol id="ios-arrow-down" viewBox="0 0 512 512">
        <path d="M396.6 160l19.4 20.7L256 352 96 180.7l19.3-20.7L256 310.5z"/>
    </symbol>
    <symbol id="ios-time-outline" viewBox="0 0 512 512">
        <style>.st0{fill:#010101}</style>
        <path d="M256 32C132.3 32 32 132.3 32 256s100.3 224 224 224 224-100.3 224-224S379.7 32 256 32zm147.1 371.1c-19.1 19.1-41.4 34.1-66.1 44.6-25.6 10.8-52.9 16.3-81 16.3s-55.3-5.5-81-16.3c-24.8-10.5-47-25.5-66.1-44.6C89.8 384 74.8 361.7 64.3 337 53.5 311.3 48 284.1 48 256s5.5-55.3 16.3-81c10.5-24.8 25.5-47 44.6-66.1C128 89.8 150.3 74.8 175 64.3 200.7 53.5 227.9 48 256 48s55.3 5.5 81 16.3c24.8 10.5 47 25.5 66.1 44.6 19.1 19.1 34.1 41.4 44.6 66.1 10.8 25.6 16.3 52.9 16.3 81s-5.5 55.3-16.3 81c-10.5 24.7-25.5 47-44.6 66.1z" class="st0"/>
        <circle cx="256" cy="80" r="8" class="st0"/>
        <circle cx="256" cy="432" r="8" class="st0"/>
        <circle cx="432" cy="256" r="8" class="st0"/>
        <circle cx="80" cy="256" r="8" class="st0"/>
        <circle cx="168" cy="103.6" r="8" class="st0"/>
        <circle cx="344" cy="408.4" r="8" class="st0"/>
        <circle cx="408.4" cy="168" r="8" class="st0"/>
        <circle cx="103.6" cy="344" r="8" class="st0"/>
        <circle cx="103.6" cy="168" r="8" class="st0"/>
        <circle cx="408.4" cy="344" r="8" class="st0"/>
        <circle cx="344" cy="103.6" r="8" class="st0"/>
        <circle cx="168" cy="408.4" r="8" class="st0"/>
        <path d="M269.9 248c-2.9-5-8.1-7.8-13.4-8l-38-63.4c-2.3-3.8-7.2-5-11-2.7s-5 7.2-2.7 11l37.6 62.9c-2.9 4.8-3.2 11.1-.2 16.3 1.5 2.5 3.5 4.5 5.9 5.8V392c0 4.4 3.6 8 8 8s8-3.6 8-8V269.9c7.6-4.5 10.2-14.2 5.8-21.9z" class="st0"/>
    </symbol>
    <symbol id="ios-trash-outline" viewBox="0 0 512 512">
        <path d="M400 113.3h-80v-20c0-16.2-13.1-29.3-29.3-29.3h-69.5C205.1 64 192 77.1 192 93.3v20h-80V128h21.1l23.6 290.7c0 16.2 13.1 29.3 29.3 29.3h141c16.2 0 29.3-13.1 29.3-29.3L379.6 128H400v-14.7zm-193.4-20c0-8.1 6.6-14.7 14.6-14.7h69.5c8.1 0 14.6 6.6 14.6 14.7v20h-98.7v-20zm135 324.6v.8c0 8.1-6.6 14.7-14.6 14.7H186c-8.1 0-14.6-6.6-14.6-14.7v-.8L147.7 128h217.2l-23.3 289.9z"/>
        <path d="M249 160h14v241h-14zm71 0h-14.6l-10.7 241h14.6zm-113.5 0H192l10.7 241h14.6z"/>
    </symbol>
    <symbol id="ios-stopwatch-outline" viewBox="0 0 512 512">
        <path d="M397.6 146.7l-1.8-1.7h18.4l8.5 7.8 22.5-22.8-40.8-40.3-23.2 22.3 8.8 9.2v18.6l-5-4.7c-31.3-28.3-70-45.2-113-48.9V48h-32v38h-2c-43.7 3-85 22.5-116 53v-17.8l8.9-9.2L108 89.8 67.2 130l22.5 22.8 8.5-7.8H116c-.3 0-.7.7-1 1.1-32.8 35.1-51 80.9-51 128.5C64 379 150.1 464 256.1 464 361.9 464 448 379.1 448 274.7c0-47.6-18-93.1-50.4-128zm-141.3 299c-95.5 0-173.1-76.7-173.1-170.9 0-94.3 77.7-170.9 173.1-170.9 95.5 0 173.1 76.7 173.1 170.9.1 94.2-77.6 170.9-173.1 170.9z"/>
        <path d="M264 257.3V128h-16v129.4c-12.5 4.3-24 16.5-24 30.3 0 14.7 10 27 24 30.5l8 17.8 8-17.8c14-3.5 24-15.8 24-30.5 0-14.5-10.5-26.7-24-30.4z"/>
    </symbol>
    <symbol id="ios-arrow-left" viewBox="0 0 512 512">
        <path d="M352 115.4L331.3 96 160 256l171.3 160 20.7-19.3L201.5 256z"/>
    </symbol>
    <symbol id="load-c" viewBox="0 0 512 512">
        <path d="M479.8 226.1c-1.4-8.7-3.1-17.3-5.3-25.8-2.8-10.8-6.4-21.5-10.8-31.8-8.9-21.2-21.1-41-35.9-58.6-16-18.9-35.3-35.2-56.7-47.7C350 49.8 327 41 303 36.1c-12.4-2.5-24.9-4-37.6-4.1-9.9-.1-19.8.3-29.6 1.2-25.5 2.5-50.7 9.6-73.9 20.5-19.9 9.4-38.4 21.6-54.8 36.2-16.4 14.6-30.7 31.6-42.2 50.3-12.7 20.8-22.2 43.5-27.4 67.3-4.2 19-6.2 38.6-5.2 58.1.9 18.9 3.8 37.8 9.5 55.9 3.6 11.5 7.9 22.7 13.3 33.6 5.3 10.7 11.5 21 18.4 30.7 13.8 19.3 30.6 36.4 49.8 50.5 19.6 14.5 41.7 25.7 64.9 33.1 24.2 7.7 49.9 11.3 75.3 10.4 24.8-.8 49.4-5.6 72.6-14.5 22.3-8.6 43.2-20.9 61.5-36.3 9.2-7.8 17.4-16.6 25.1-25.9 7.8-9.4 14.8-19.3 20.6-30 5-9.2 9.2-18.8 12.8-28.5 1.8-4.8 3.5-9.6 4.9-14.6 1.5-5.3 2.6-10.8 3.6-16.2 1.5-8.5 2.1-17.3 1.3-25.9-.7 3.8-1.3 7.5-2.2 11.2-1.1 4.3-2.5 8.5-4.1 12.6-3.2 8.7-7.2 17.1-11 25.5-4.9 10.7-10.6 20.9-16.8 30.8-3.2 5.1-6.5 10.1-10.1 14.9-3.6 4.8-7.7 9.4-11.8 13.9-8.2 9.1-17.1 17.2-27 24.4-10.1 7.4-20.8 13.9-32.1 19.3-22.6 11-47.3 17.6-72.3 19.8-25.6 2.2-51.7-.3-76.3-7.6-23.4-6.9-45.6-18.1-65.1-32.8-18.9-14.3-35.3-31.9-48.2-51.8C75.4 347.8 66.1 324.9 61 301c-1.3-6.2-2.3-12.6-3-18.9-.6-5.4-1.1-10.9-1.3-16.4-.3-11.3.4-23 2.1-34.2 3.7-24.6 11.7-48.3 24.1-69.9 11-19.3 25.3-36.7 42.1-51.4 16.8-14.8 36-26.7 56.8-35.1 12-4.9 24.6-8.5 37.4-10.9 6.5-1.2 13-2.2 19.5-2.7 3.2-.3 6.3-.3 9.5-.6 1.3 0 2.6.1 3.9.1 21.7-.4 43.5 2.4 64.2 8.9 22.3 7 43.3 18.3 61.5 33 19.1 15.4 35 34.4 47 55.8 10.2 18.2 17.5 37.8 21.9 58.2 1 4.7 1.8 9.4 2.6 14.1.7 4.3 3.1 8.3 6.8 10.7 7.8 5.2 18.7 1.7 22.5-6.7 1.3-2.9 1.7-6 1.2-8.9z"/>
    </symbol>
    <symbol id="load-a" viewBox="0 0 512 512">
        <circle cx="256" cy="96" r="64"/>
        <circle cx="96" cy="256" r="48"/>
        <circle cx="368" cy="144" r="8"/>
        <path d="M180.1 107.6c-19.9-20.1-52.2-20.1-72.1 0-19.9 20.1-19.9 52.7 0 72.8 19.9 20.1 52.2 20.1 72.1 0 19.9-20.1 19.9-52.7 0-72.8z"/>
        <circle cx="416" cy="256" r="16"/>
        <circle cx="369" cy="369" r="24"/>
        <circle cx="256" cy="416" r="32"/>
        <circle cx="144" cy="368" r="40"/>
    </symbol>
    <symbol id="ios-arrow-right" viewBox="0 0 512 512">
        <path d="M160 115.4L180.7 96 352 256 180.7 416 160 396.7 310.5 256z"/>
    </symbol>
    <symbol id="ios-arrow-up" viewBox="0 0 512 512">
        <path d="M396.6 352l19.4-20.7L256 160 96 331.3l19.3 20.7L256 201.5z"/>
    </symbol>
    <symbol id="ios-bell-outline" viewBox="0 0 512 512">
        <path d="M381.7 225.9c0-97.6-52.5-130.8-101.6-138.2 0-.5.1-1 .1-1.6 0-12.3-10.9-22.1-24.2-22.1-13.3 0-23.8 9.8-23.8 22.1 0 .6 0 1.1.1 1.6-49.2 7.5-102 40.8-102 138.4 0 113.8-28.3 126-66.3 158h384c-37.8-32.1-66.3-44.4-66.3-158.2zM107.2 368c8.6-9 16.4-18.4 22.7-31.8 12-25.3 17.4-59.2 17.4-110.2 0-46.4 12.5-80.4 37.1-101.2 22.9-19.3 51.7-23.3 71.8-23.3 20.1 0 48.9 4 71.6 23.3 24.5 20.7 37 54.5 37 100.9 0 83.8 14.9 117.3 40.3 142.3H107.2zm149 80c26.8 0 48.8-19.9 51.7-43H204.5c2.8 23.1 24.9 43 51.7 43z"/>
    </symbol>
    <symbol id="ios-checkmark-outline" viewBox="0 0 512 512">
        <path d="M340.1 177.3L215.3 303l-47.2-47.2-17.8 17.8 56 56c2.5 2.5 5.9 4.5 8.9 4.5s6.3-2 8.8-4.4l133.7-134.4-17.6-18z"/>
        <path d="M256 48C141.1 48 48 141.1 48 256s93.1 208 208 208 208-93.1 208-208S370.9 48 256 48zm0 398.7c-105.1 0-190.7-85.5-190.7-190.7 0-105.1 85.5-190.7 190.7-190.7 105.1 0 190.7 85.5 190.7 190.7 0 105.1-85.6 190.7-190.7 190.7z"/>
    </symbol>
    <symbol id="ios-checkmark" viewBox="0 0 512 512">
        <path d="M256 48C141.1 48 48 141.1 48 256s93.1 208 208 208 208-93.1 208-208S370.9 48 256 48zm-32.1 281.7c-2.4 2.4-5.8 4.4-8.8 4.4s-6.4-2.1-8.9-4.5l-56-56 17.8-17.8 47.2 47.2L340 177.3l17.5 18.1-133.6 134.3z"/>
    </symbol>
    <symbol id="ios-checkmark-empty" viewBox="0 0 512 512">
        <path d="M223.9 329.7c-2.4 2.4-5.8 4.4-8.8 4.4s-6.4-2.1-8.9-4.5l-56-56 17.8-17.8 47.2 47.2L340 177.3l17.5 18.1-133.6 134.3z"/>
    </symbol>
    <symbol id="ios-clock" viewBox="0 0 512 512">
        <path d="M256 48C141.1 48 48 141.1 48 256s93.1 208 208 208 208-93.1 208-208S370.9 48 256 48zm17 225H160v-17h96V128h17v145z"/>
    </symbol>
    <symbol id="ios-circle-filled" viewBox="0 0 512 512">
        <path d="M256 48C141.1 48 48 141.1 48 256s93.1 208 208 208 208-93.1 208-208S370.9 48 256 48zm0 398.7c-105.1 0-190.7-85.5-190.7-190.7 0-105.1 85.5-190.7 190.7-190.7 105.1 0 190.7 85.5 190.7 190.7 0 105.1-85.6 190.7-190.7 190.7z"/>
        <path d="M256 96c-88.4 0-160 71.6-160 160s71.6 160 160 160 160-71.6 160-160S344.4 96 256 96z"/>
    </symbol>
    <symbol id="ios-close-outline" viewBox="0 0 512 512">
        <style>.st0{fill:#010101}</style>
        <path d="M403.1 108.9c-81.2-81.2-212.9-81.2-294.2 0s-81.2 212.9 0 294.2c81.2 81.2 212.9 81.2 294.2 0s81.2-213 0-294.2zm-12.3 281.9c-74.3 74.3-195.3 74.3-269.6 0-74.3-74.3-74.3-195.3 0-269.6s195.3-74.3 269.6 0c74.4 74.3 74.4 195.3 0 269.6z" class="st0"/>
        <path d="M340.2 160l-84.4 84.2-84-83.8-11.8 11.8 84 83.8-84 83.8 11.8 11.8 84-83.8 84.4 84.2 11.8-11.8-84.4-84.2 84.4-84.2z" class="st0"/>
    </symbol>
</svg>